<svg data-v-0dd9719b="" version="1.0" xmlns="http://www.w3.org/2000/svg" xmlns:xlink="http://www.w3.org/1999/xlink" width="100%" height="100%" viewBox="0 0 340.000000 250.000000" preserveAspectRatio="xMidYMid meet" color-interpolation-filters="sRGB" style="margin: auto;"> <rect data-v-0dd9719b="" x="0" y="0" width="100%" height="100%" fill="#ffffff" fill-opacity="1" class="background"></rect> <rect data-v-0dd9719b="" x="0" y="0" width="100%" height="100%" fill="url(#watermark)" fill-opacity="1" class="watermarklayer"></rect> <g data-v-0dd9719b="" fill="#020101" class="icon-text-wrapper icon-svg-group iconsvg" transform="translate(47.79975128173828,95)"><g class="iconsvg-imagesvg" transform="translate(0,0)"><g><rect fill="#020101" fill-opacity="0" stroke-width="2" x="0" y="0" width="60" height="60" class="image-rect"></rect> <svg filter="url(#colors3016323892)" x="0" y="0" width="60" height="60" filtersec="colorsf3604380442" class="image-svg-svg primary" style="overflow: visible;"><svg fill="#000000" xmlns="http://www.w3.org/2000/svg" xmlns:xlink="http://www.w3.org/1999/xlink" version="1.1" baseProfile="tiny" x="0px" y="0px" viewBox="4.900000095367432 5.099999904632568 90 90" xml:space="preserve"><path d="M4.9,52h7.3c1.1,20,17.6,35.8,37.7,35.8c20.8,0,37.8-16.9,37.8-37.7C87.7,30,71,13.5,52,12.4V5.1c24,1.1,42.9,20.8,42.9,45  c0,24.8-20.2,45-45,45C25.8,95.1,6,76,4.9,52z M49.9,83.4c18.3,0,33.3-14.9,33.3-33.3C83.2,32.5,69,18,52,16.9v7.3  c13,1,22.6,10.7,23.8,23.5c0.7,6.9-1.4,13.7-5.9,19c-4.4,5.4-10.7,8.7-17.6,9.3c-0.8,0.1-1.7,0.1-2.5,0.1  c-12.8,0-23.4-9.1-25.6-21.5L17,55.3C19.6,71.5,33.3,83.4,49.9,83.4z M71,54.3c0.3-1.4,0.4-2.7,0.4-4.1C71.4,39,63,29.7,52,28.7V36  c1,0.1,1.3,0.2,2,0.4c6.9,2,11,8.8,10,15.7L71,54.3z"></path></svg></svg> <defs><filter id="colors3016323892"><feColorMatrix type="matrix" values="0 0 0 0 0.0078125  0 0 0 0 0.00390625  0 0 0 0 0.00390625  0 0 0 1 0" class="icon-fecolormatrix"></feColorMatrix></filter> <filter id="colorsf3604380442"><feColorMatrix type="matrix" values="0 0 0 0 0.99609375  0 0 0 0 0.99609375  0 0 0 0 0.99609375  0 0 0 1 0" class="icon-fecolormatrix"></feColorMatrix></filter> <filter id="colorsb704809443"><feColorMatrix type="matrix" values="0 0 0 0 0  0 0 0 0 0  0 0 0 0 0  0 0 0 1 0" class="icon-fecolormatrix"></feColorMatrix></filter></defs></g></g> <g transform="translate(67,6.081087112426758)"><g data-gra="path-name" fill-rule="" class="tp-name iconsvg-namesvg" transform="translate(0,0)"><g transform="scale(1)"><g><path d="M8.72 1.16L8.72 1.16Q9.95 2.95 10.09 2.99L10.09 2.99Q10.16 3.02 10.48 2.71L10.48 2.71Q10.9 2.25 13.46 0.67L13.46 0.67Q20.36-3.55 20.43-4.01L20.43-4.01Q20.43-4.25 18.81-3.8L18.81-3.8Q18.35-3.66 17.75-3.48L17.75-3.48Q13.99-2.32 13.85-2.29L13.85-2.29Q12.73-2.07 12.45-2.88L12.45-2.88Q12.27-3.45 12.3-7.21L12.3-7.21Q12.3-7.8 12.3-8.33L12.3-8.33Q12.3-8.96 12.3-10.05L12.3-10.05Q12.27-13.46 12.5-14.03 12.73-14.59 14.1-14.55L14.1-14.55Q14.55-14.55 14.84-14.55L14.84-14.55Q16.66-14.55 17-14.4 17.33-14.24 17.61-13.25L17.61-13.25Q20.64-3.45 29.64 1.41L29.64 1.41Q30.8 2.04 30.97 1.93L30.97 1.93Q31.08 1.9 31.29 1.44L31.29 1.44Q32.06-0.18 33.43-0.63L33.43-0.63Q34.07-0.84 34.03-0.98L34.03-0.98Q34-1.2 32.84-1.58L32.84-1.58Q22.68-5.17 18.7-12.8L18.7-12.8Q18.11-13.85 18.14-14.03L18.14-14.03Q18.21-14.45 20.46-14.52L20.46-14.52Q21.16-14.52 25.91-14.55L25.91-14.55Q31.75-14.59 32.64-14.63 33.54-14.66 33.71-14.94L33.71-14.94Q34.03-15.4 31.71-17.33L31.71-17.33Q30.55-18.25 30.27-18.25L30.27-18.25Q29.95-18.25 29.21-17.23L29.21-17.23Q28.93-16.8 28.9-16.77L28.9-16.77Q28.79-16.63 28.69-16.42L28.69-16.42Q28.34-15.86 27.84-15.71L27.84-15.71Q27.18-15.57 22.64-15.54L22.64-15.54Q21.27-15.54 20.46-15.54L20.46-15.54Q14.66-15.54 13.68-15.59 12.69-15.64 12.52-15.93L12.52-15.93Q12.48-15.96 12.48-16L12.48-16Q12.38-16.17 12.38-16.58 12.38-16.98 12.48-17.23L12.48-17.23Q12.62-17.51 12.9-17.67 13.18-17.82 14.2-18.25L14.2-18.25Q21.2-21.02 26.75-25L26.75-25Q28.16-25.98 28.62-25.98L28.62-25.98Q29.39-25.98 28.69-26.68L28.69-26.68Q28.2-27.21 26.72-28.34L26.72-28.34Q25.91-29 25.7-28.95 25.49-28.9 24.4-27.84L24.4-27.84Q19.93-23.34 13.96-19.44L13.96-19.44Q12.87-18.77 12.66-18.95L12.66-18.95Q12.27-19.23 12.3-22.5L12.3-22.5Q12.3-22.92 12.3-23.87L12.3-23.87Q12.34-26.96 12.41-27.56 12.48-28.16 12.9-28.41L12.9-28.41 12.94-28.44Q13.61-28.83 11.99-29.43L11.99-29.43Q11.18-29.71 9.7-30.09L9.7-30.09Q9.56-30.13 9.32-30.2L9.32-30.2Q8.72-30.38 8.63-30.22 8.54-30.06 8.68-28.9L8.68-28.9Q8.72-28.44 8.75-28.13L8.75-28.13Q8.89-26.72 8.93-21.53 8.96-16.35 8.82-16.07L8.82-16.07Q8.4-15.29 3.69-15.68L3.69-15.68Q3.48-15.68 3.22-15.71 2.95-15.75 2.78-15.77 2.6-15.79 2.53-15.79L2.53-15.79Q2.25-15.82 2.29-15.61 2.32-15.4 2.64-14.84L2.64-14.84Q2.95-14.24 3.11-14.19 3.27-14.13 4.32-14.34L4.32-14.34Q5.98-14.63 7.31-14.54 8.65-14.45 8.82-14.06L8.82-14.06Q8.93-13.82 8.93-8.33 8.93-2.85 8.82-2.5L8.82-2.5Q8.61-1.86 7.88-1.34L7.88-1.34Q7.42-1.02 7.51-0.76 7.59-0.49 8.72 1.16ZM45.6 2.88L45.6 2.88Q46.27 3.27 47.58 2.81 48.9 2.36 48.9 1.72L48.9 1.72Q48.9 1.02 49.22 0.84L49.22 0.84Q49.75 0.63 54 0.63L54 0.63Q58.18 0.63 58.64 0.84L58.64 0.84Q58.99 1.02 58.92 1.76L58.92 1.76Q58.92 1.83 58.92 1.86L58.92 1.86Q58.85 2.71 59.66 2.79 60.47 2.88 61.95 2.18L61.95 2.18Q62.61 1.9 62.67 1.63 62.72 1.37 62.65-0.7L62.65-0.7Q62.4-7.38 62.72-8.26L62.72-8.26Q62.93-8.96 63.81-8.33L63.81-8.33Q64.02-8.19 64.34-7.95L64.34-7.95Q67.32-5.55 67.57-6.33L67.57-6.33Q68.06-7.91 69.86-8.79L69.86-8.79Q70.91-9.35 70-9.63L70-9.63Q67.68-10.34 64.44-12.3 61.21-14.27 61.21-15.01L61.21-15.01Q61.21-15.33 61.75-15.38 62.3-15.43 65.53-15.47L65.53-15.47Q69.47-15.5 69.82-15.89L69.82-15.89Q70.17-16.24 68.55-17.51L68.55-17.51Q68.24-17.75 67.78-18.11L67.78-18.11Q66.59-18.98 66.27-18.95 65.95-18.91 65.07-17.79L65.07-17.79Q64.3-16.77 63.97-16.63 63.63-16.49 61.77-16.49L61.77-16.49Q59.87-16.49 59.45-16.66 59.03-16.84 58.25-17.86L58.25-17.86Q57.09-19.48 57.06-19.79L57.06-19.79Q57.06-20.29 58.78-20.36L58.78-20.36Q59.38-20.39 62.05-20.39L62.05-20.39Q65.67-20.43 66.29-20.46 66.9-20.5 67.08-20.78L67.08-20.78Q67.39-21.27 65.07-23.03L65.07-23.03Q64.16-23.73 63.9-23.71 63.63-23.7 62.96-22.78L62.96-22.78Q62.23-21.8 61.95-21.66L61.95-21.66Q61.42-21.38 58.5-21.38L58.5-21.38Q57.69-21.38 57.45-21.38L57.45-21.38 56.99-21.38Q53.72-21.41 53.33-21.66L53.33-21.66Q53.02-21.9 53.33-22.96L53.33-22.96Q53.33-22.99 53.37-23.06L53.37-23.06Q53.44-23.31 53.47-23.41L53.47-23.41Q53.75-24.64 54.18-24.96L54.18-24.96Q54.35-25.1 61.21-25.14L61.21-25.14Q67.89-25.17 68.27-25.31L68.27-25.31Q68.41-25.38 68.41-25.7L68.41-25.7Q68.41-26.02 66.87-27.33 65.32-28.65 64.97-28.65L64.97-28.65Q64.76-28.65 63.95-27.53L63.95-27.53Q63.28-26.54 63-26.4L63-26.4Q62.47-26.12 59.66-26.12L59.66-26.12Q58.92-26.12 58.64-26.12L58.64-26.12Q55.86-26.12 55.3-26.16 54.74-26.19 54.56-26.37L54.56-26.37Q54.21-26.75 54.44-27.72 54.67-28.69 55.2-29.04L55.2-29.04Q55.93-29.43 54.63-29.85L54.63-29.85Q53.89-30.06 52.35-30.38L52.35-30.38Q50.87-30.69 50.8-30.52L50.8-30.52Q50.77-30.48 50.77-30.16L50.77-30.16Q50.77-26.65 49.96-26.23L49.96-26.23Q49.61-26.09 45.88-26.12 42.15-26.16 40.29-26.33L40.29-26.33Q39.8-26.37 39.76-26.26 39.73-26.16 40.11-25.45L40.11-25.45Q40.46-24.79 40.62-24.71 40.78-24.64 41.63-24.79L41.63-24.79Q43.49-25.07 46.58-25.1L46.58-25.1Q47.39-25.1 47.78-25.12 48.16-25.14 48.64-25.1 49.11-25.07 49.29-25.03 49.46-25 49.66-24.86 49.85-24.71 49.89-24.63 49.92-24.54 49.92-24.24 49.92-23.94 49.85-23.71 49.78-23.48 49.68-22.99L49.68-22.99Q49.39-21.8 49.03-21.59 48.66-21.38 47-21.38L47-21.38Q44.23-21.38 41.91-21.59L41.91-21.59Q41.24-21.66 41.24-21.52L41.24-21.52Q41.24-21.41 41.55-20.74L41.55-20.74Q41.59-20.71 41.63-20.6L41.63-20.6Q41.87-20.07 42.06-20 42.26-19.93 43.14-20.07L43.14-20.07Q43.38-20.11 43.52-20.14L43.52-20.14Q45.7-20.5 47.14-20.37 48.59-20.25 48.59-19.72L48.59-19.72Q48.59-19.3 48.11-18.18 47.64-17.05 47.36-16.8L47.36-16.8Q47.11-16.56 44.17-16.49 41.24-16.42 39.09-16.63L39.09-16.63Q38.25-16.7 38.18-16.61 38.11-16.52 38.5-15.82L38.5-15.82Q38.85-15.15 38.95-15.06 39.06-14.98 39.69-15.08L39.69-15.08Q41.24-15.33 43.44-15.42 45.63-15.5 46.02-15.36L46.02-15.36Q46.72-15.08 45.74-13.32 44.75-11.57 42.7-9.35 40.64-7.14 38.53-5.63L38.53-5.63Q37.41-4.85 37.97-4.75L37.97-4.75Q38.36-4.68 40.36-5.84 42.36-7 43.73-8.05L43.73-8.05Q44.61-8.72 44.95-8.82 45.28-8.93 45.42-8.61L45.42-8.61Q45.56-8.26 45.53-5.19 45.49-2.11 45.32 0.91L45.32 0.91Q45.25 2.11 45.3 2.43 45.35 2.74 45.6 2.88ZM58.5-0.39L58.5-0.39Q58.22-0.25 53.93-0.25 49.64-0.25 49.39-0.39L49.39-0.39Q49.08-0.56 49.01-0.91 48.94-1.27 48.94-2.67L48.94-2.67Q48.94-4.29 49.04-4.5L49.04-4.5Q49.25-4.99 50.91-5.03L50.91-5.03Q50.94-5.03 53.96-5.03L53.96-5.03Q54.46-5.03 55.27-5.03L55.27-5.03Q58.11-5.03 58.57-4.82 59.03-4.61 58.99-3.3L58.99-3.3Q58.99-2.88 58.99-2.67L58.99-2.67Q58.99-1.23 58.92-0.88 58.85-0.53 58.5-0.39ZM58.61-6.22L58.61-6.22Q58.36-6.01 53.96-6.01 49.57-6.01 49.32-6.22L49.32-6.22Q49.04-6.4 48.97-6.79 48.9-7.17 48.9-8.47L48.9-8.47Q48.9-8.51 48.9-8.96L48.9-8.96Q48.9-10.2 49.38-10.39 49.85-10.58 52.7-10.58L52.7-10.58Q53.51-10.58 53.96-10.58 54.42-10.58 55.23-10.58L55.23-10.58Q58.25-10.58 58.68-10.34L58.68-10.34Q59.03-10.05 59.03-8.96L59.03-8.96Q59.03-8.65 59.03-8.47L59.03-8.47Q59.03-7.17 58.96-6.79 58.89-6.4 58.61-6.22ZM58.71-11.74L58.71-11.74Q58.43-11.6 53.95-11.58 49.46-11.57 49.08-11.71L49.08-11.71Q48.59-11.88 48.46-12.09 48.34-12.3 48.53-12.74 48.73-13.18 49.36-14.1L49.36-14.1Q49.46-14.24 49.61-14.45L49.61-14.45Q50.1-15.19 50.57-15.33 51.05-15.47 53.23-15.47L53.23-15.47Q53.72-15.47 54-15.47L54-15.47Q57.34-15.47 57.83-15.26L57.83-15.26Q58.22-15.08 58.78-14.24L58.78-14.24Q58.85-14.13 58.89-14.06L58.89-14.06Q59.52-13.08 59.48-12.57 59.45-12.06 58.71-11.74ZM56.81-16.59L56.81-16.59Q56.53-16.49 54.11-16.49L54.11-16.49Q51.64-16.49 51.35-16.72 51.05-16.95 51.68-18.42 52.31-19.9 52.63-20.14 52.95-20.39 54.21-20.39L54.21-20.39Q55.37-20.39 55.71-20.21 56.04-20.04 56.32-19.27L56.32-19.27Q56.64-18.42 56.81-18.04L56.81-18.04Q57.3-16.88 56.81-16.59ZM88.42 2.6L88.42 2.6Q88.88 2.81 89.98 2.46 91.09 2.11 91.62 1.62L91.62 1.62Q91.83 1.44 91.86 1.23 91.9 1.02 91.83 0L91.83 0Q91.79-0.42 91.76-1.63 91.72-2.85 91.72-3.09L91.72-3.09Q91.62-5.7 91.63-11.3 91.65-16.91 91.79-17.12L91.79-17.12Q91.97-17.51 92.43-17.58 92.88-17.65 95.13-17.65L95.13-17.65Q97.59-17.65 97.66-17.65L97.66-17.65Q98.4-17.51 98.58-16.59L98.58-16.59Q98.65-16.14 98.65-11.43L98.65-11.43Q98.65-10.9 98.65-9.95L98.65-9.95Q98.65-6.22 98.44-5.63 98.23-5.03 96.89-5.1L96.89-5.1Q96.54-5.13 96.33-5.13L96.33-5.13Q94.46-5.2 94.13-5.19 93.8-5.17 93.8-5.03L93.8-5.03Q93.8-4.78 94.57-4.64L94.57-4.64Q95.77-4.39 96.56-3.6 97.35-2.81 97.35-1.83L97.35-1.83Q97.35-1.51 97.47-1.44 97.59-1.37 98.02-1.41L98.02-1.41Q100.83-1.72 101.5-3.09L101.5-3.09Q101.81-3.73 101.87-4.61 101.92-5.48 101.95-10.41L101.95-10.41Q101.99-16.31 102.09-16.73L102.09-16.73Q102.2-17.02 102.62-17.23L102.62-17.23Q102.69-17.26 102.73-17.3L102.73-17.3Q103.39-17.68 103.25-17.93L103.25-17.93Q103.08-18.25 102.08-19.07 101.07-19.9 100.37-20.29L100.37-20.29Q100.02-20.46 99.79-20.36 99.56-20.25 99.18-19.72L99.18-19.72Q98.47-18.84 98.12-18.74L98.12-18.74Q97.73-18.56 95.1-18.56L95.1-18.56Q94.89-18.56 94.5-18.56L94.5-18.56Q92.25-18.56 91.93-18.84L91.93-18.84Q91.65-19.09 91.65-20.43L91.65-20.43Q91.65-20.64 91.65-20.78L91.65-20.78Q91.65-21.97 91.74-22.36 91.83-22.75 92.14-22.92L92.14-22.92Q92.43-23.1 92.64-23.38L92.64-23.38Q92.99-23.73 93.78-23.78 94.57-23.84 99.42-23.84L99.42-23.84Q104.2-23.84 104.99-23.89 105.79-23.94 105.93-24.22L105.93-24.22Q106.07-24.47 105.22-25.31 104.38-26.16 103.01-27.18L103.01-27.18Q102.34-27.63 102.09-27.51 101.85-27.39 100.9-26.16L100.9-26.16Q100.23-25.24 100.02-25.1L100.02-25.1Q99.6-24.89 97.14-24.89L97.14-24.89Q96.43-24.89 95.94-24.89L95.94-24.89Q95.59-24.89 94.99-24.89L94.99-24.89Q92.25-24.89 91.9-25.14L91.9-25.14Q91.65-25.31 91.65-26.16L91.65-26.16Q91.65-26.37 91.65-26.51L91.65-26.51Q91.65-27.6 91.72-27.93 91.79-28.27 92.14-28.58L92.14-28.58Q92.67-29.07 92.11-29.39L92.11-29.39Q91.72-29.57 90.77-29.85L90.77-29.85Q88.28-30.52 88.07-30.27L88.07-30.27Q87.96-30.2 88-29.88L88-29.88Q88.63-25.38 87.79-24.96L87.79-24.96Q87.57-24.86 81.77-24.87 75.97-24.89 74.85-25L74.85-25Q74.04-25.07 73.95-24.98 73.86-24.89 74.21-24.22L74.21-24.22Q74.57-23.52 74.71-23.43 74.85-23.34 75.73-23.48L75.73-23.48Q77.7-23.77 82.86-23.8L82.86-23.8Q83.39-23.8 84.3-23.8L84.3-23.8Q87.36-23.84 87.82-23.59L87.82-23.59Q88.28-23.34 88.24-22.18L88.24-22.18Q88.24-22.08 88.24-21.9L88.24-21.9Q88.24-21.45 88.24-21.2L88.24-21.2Q88.24-20.99 88.24-20.6L88.24-20.6Q88.28-19.05 87.93-18.81 87.57-18.56 85.43-18.56L85.43-18.56Q84.97-18.56 84.69-18.56L84.69-18.56Q82.2-18.56 81.69-18.65 81.18-18.74 79.45-19.51L79.45-19.51Q77.94-20.18 77.8-20.07L77.8-20.07Q77.7-20 77.8-18.91L77.8-18.91Q78.05-16.24 78.06-11.39 78.08-6.54 77.84-3.02L77.84-3.02Q77.73-1.72 78.05-1.42 78.36-1.13 79.49-1.37 80.61-1.62 81.11-2.07 81.6-2.53 81.53-3.3L81.53-3.3Q81.35-6.71 81.32-11.76 81.28-16.8 81.46-17.16 81.63-17.51 82.11-17.58 82.58-17.65 84.8-17.65 87.01-17.65 87.47-17.58 87.93-17.51 88.1-17.16L88.1-17.16Q88.31-16.77 88.28-10.35 88.24-3.94 88.03-0.39L88.03-0.39Q87.89 1.65 87.94 2.04 88 2.43 88.42 2.6ZM111.83 2.74L111.83 2.74Q111.94 2.85 112.13 2.69 112.32 2.53 112.32 2.29L112.32 2.29Q112.32 2.21 113.41 0.95L113.41 0.95Q114.61-0.32 115.52-1.48L115.52-1.48Q116.68-2.78 117.02-2.85 117.35-2.92 118.02-1.9L118.02-1.9Q119-0.49 119.79 0.21 120.59 0.91 122.33 1.37 124.07 1.83 126.3 1.93 128.53 2.04 133 2.04L133 2.04Q139.64 2.07 139.92 1.93L139.92 1.93Q140.03 1.9 140.06 1.65L140.06 1.65Q140.2 0.95 140.75 0.26 141.29-0.42 141.86-0.6L141.86-0.6Q142.35-0.81 142.31-1.13L142.31-1.13Q142.28-1.3 141.96-1.2L141.96-1.2Q141.75-1.13 133.8-1.11 125.86-1.09 124.88-1.16L124.88-1.16Q120.16-1.48 118.16-3.38L118.16-3.38Q117.74-3.8 117.67-4.24 117.6-4.68 117.56-7.1L117.56-7.1Q117.56-7.24 117.56-7.45L117.56-7.45Q117.56-9.74 117.65-10.16 117.74-10.58 118.37-10.86L118.37-10.86Q118.44-10.9 118.48-10.93L118.48-10.93Q118.9-11.14 119.06-11.3 119.21-11.46 119.07-11.76 118.93-12.06 118.53-12.43 118.13-12.8 117.28-13.46L117.28-13.46Q116.09-14.41 115.8-14.43 115.52-14.45 114.93-13.61L114.93-13.61Q114.22-12.52 113.54-12.3 112.85-12.09 110.78-12.34L110.78-12.34Q109.97-12.45 109.88-12.38 109.79-12.3 110.07-11.64L110.07-11.64Q110.39-10.9 110.5-10.83 110.6-10.76 111.27-10.9L111.27-10.9Q112.15-11.14 113.04-11.13 113.94-11.11 114.19-10.86L114.19-10.86Q114.43-10.65 114.49-7.19 114.54-3.73 114.33-3.27L114.33-3.27Q114.19-2.95 112.85-2.25 111.52-1.55 110.21-1.05L110.21-1.05Q110.07-1.02 110.76 0.6 111.45 2.21 111.83 2.74ZM128.39-2.95L128.39-2.95Q129.2-2.5 130.99-3.34L130.99-3.34Q131.66-3.62 131.71-3.9 131.77-4.18 131.7-6.33L131.7-6.33Q131.48-11.43 131.57-15.35 131.66-19.27 132.01-19.34L132.01-19.34Q132.15-19.37 132.31-19.51 132.47-19.65 132.47-19.72 132.47-19.79 132.15-19.93L132.15-19.93Q131.63-20.21 131.64-20.58 131.66-20.95 132.19-21.8L132.19-21.8Q133.35-23.55 133.84-24.64L133.84-24.64Q134.33-25.59 134.75-25.88L134.75-25.88Q134.93-25.95 137.81-25.98L137.81-25.98Q140.94-26.02 141.13-26.46 141.33-26.89 138.97-28.83L138.97-28.83Q138.09-29.53 137.81-29.46 137.53-29.39 136.79-28.37L136.79-28.37Q136.69-28.23 136.51-27.98L136.51-27.98Q135.98-27.25 135.33-27.12 134.68-27 131.27-27L131.27-27Q130.25-27 129.66-27L129.66-27Q123.29-27 121.22-27.18L121.22-27.18Q120.73-27.25 120.71-27.14 120.69-27.04 121.04-26.3L121.04-26.3Q121.36-25.66 121.48-25.58 121.61-25.49 122.31-25.59L122.31-25.59Q124.07-25.88 126.77-25.96 129.48-26.05 129.87-25.88 130.25-25.7 130.2-25.26 130.15-24.82 129.52-23.59L129.52-23.59Q127.97-20.36 125.63-17.47 123.29-14.59 120.62-12.59L120.62-12.59Q119.81-11.99 120.02-11.74L120.02-11.74Q120.3-11.46 122.4-12.73 124.49-13.99 127.05-16L127.05-16Q127.83-16.59 128.11-16.28L128.11-16.28Q128.29-16.07 128.27-12.38 128.25-8.68 128.04-4.96L128.04-4.96Q128-3.73 128.06-3.41 128.11-3.09 128.39-2.95ZM138.97-10.27L138.97-10.27Q139.92-9.91 140.52-10.63 141.12-11.36 140.87-12.55L140.87-12.55Q140.52-14.17 138.88-15.66 137.25-17.16 134.65-18.18L134.65-18.18Q133.24-18.67 133.1-18.53L133.1-18.53Q133-18.46 133.1-18.28L133.1-18.28Q133.21-18.18 133.95-17.37L133.95-17.37Q136.76-14.38 138.09-11.18L138.09-11.18Q138.38-10.48 138.97-10.27ZM115.24-16.77L115.24-16.77Q116.86-16.35 117.25-17.58L117.25-17.58Q117.6-18.81 116.47-20.14L116.47-20.14Q115.88-20.81 115.03-21.23L115.03-21.23Q113.13-22.18 111.41-22.15L111.41-22.15Q110.36-22.11 110.88-21.59L110.88-21.59Q110.92-21.55 110.95-21.52L110.95-21.52Q113.27-19.55 114.33-17.82L114.33-17.82Q114.93-16.88 115.24-16.77ZM116.75-23.94L116.75-23.94Q117.46-23.77 118-24.28 118.55-24.79 118.55-25.59L118.55-25.59Q118.55-26.86 117.3-27.9 116.05-28.93 114.01-29.36L114.01-29.36Q113.34-29.5 112.9-29.55 112.46-29.6 112.25-29.57 112.04-29.53 112.04-29.39L112.04-29.39Q112.04-29.32 112.82-28.55L112.82-28.55Q114.89-26.54 115.88-24.61L115.88-24.61Q116.05-24.26 116.19-24.15 116.33-24.05 116.75-23.94ZM155.6 1.34L155.6 1.34Q155.71 1.44 155.92 1.41L155.92 1.41Q157.39 1.13 159.79 1.04 162.18 0.95 169.03 0.95L169.03 0.95Q177.93 0.95 178.07 0.53L178.07 0.53Q178.17 0.25 177.29-0.72 176.41-1.69 175.29-2.5L175.29-2.5Q174.76-2.88 174.53-2.74 174.3-2.6 173.53-1.41L173.53-1.41Q172.79-0.32 172.44-0.19 172.09-0.07 169.8-0.07L169.8-0.07Q167.77-0.07 167.38-0.12 166.99-0.18 166.85-0.53L166.85-0.53Q166.71-0.77 166.71-8.51 166.71-16.24 166.85-16.52L166.85-16.52Q167.03-16.88 167.57-16.93 168.12-16.98 171.67-16.98L171.67-16.98Q176.24-16.98 176.73-17.3L176.73-17.3Q177.19-17.58 176.2-18.56L176.2-18.56Q175.99-18.77 175.61-19.16L175.61-19.16Q174.76-19.97 174.45-20.25 174.13-20.53 173.76-20.55 173.39-20.57 173.18-20.3 172.97-20.04 172.48-19.3L172.48-19.3Q171.77-18.28 171.42-18.14 171.07-18 169.31-18L169.31-18Q169.07-18 168.64-18L168.64-18Q167.2-17.96 166.97-18.44 166.75-18.91 166.75-21.76L166.75-21.76Q166.75-22.54 166.75-22.99L166.75-22.99Q166.75-26.47 166.82-27.14 166.89-27.81 167.27-28.16L167.27-28.16Q167.84-28.65 166.96-29.07L166.96-29.07Q166.29-29.36 164.29-29.88L164.29-29.88Q163.27-30.13 163.14-30.04 163.02-29.95 163.13-29.04L163.13-29.04Q163.3-27.14 163.35-24.96 163.41-22.78 163.41-13.68L163.41-13.68Q163.44-3.73 163.41-2.13 163.37-0.53 163.13-0.28L163.13-0.28Q162.98-0.14 160.22-0.11 157.46-0.07 155.95-0.21L155.95-0.21Q154.9-0.28 154.86-0.21L154.86-0.21Q154.83-0.18 155.13 0.49 155.43 1.16 155.6 1.34ZM150.89 0.6L150.89 0.6Q151.21 1.09 151.44 0.98 151.66 0.88 152.12 0.04L152.12 0.04Q152.33-0.39 152.63-0.76 152.93-1.13 154.34-2.71L154.34-2.71Q154.62-3.02 155.37-3.9 156.13-4.78 156.41-5.13L156.41-5.13Q158.77-7.95 158.52-8.12L158.52-8.12Q158.34-8.23 156.62-7.07L156.62-7.07Q154.65-5.77 154.44-5.7L154.44-5.7Q153.84-5.48 153.7-6.4L153.7-6.4Q153.6-7 153.6-12.27L153.6-12.27Q153.6-17.26 153.67-18.12 153.74-18.98 154.16-19.2L154.16-19.2Q154.2-19.23 154.23-19.23L154.23-19.23Q154.83-19.51 154.74-19.88 154.65-20.25 153.77-21.16L153.77-21.16Q152.61-22.29 152.26-22.34 151.91-22.39 151.1-21.41L151.1-21.41Q150.54-20.67 149.82-20.57 149.1-20.46 146.99-20.67L146.99-20.67Q146.25-20.74 146.21-20.67 146.18-20.6 146.53-19.9L146.53-19.9Q146.85-19.27 146.97-19.18 147.09-19.09 147.38-19.2L147.38-19.2Q148.43-19.55 149.26-19.51 150.08-19.48 150.29-19.05L150.29-19.05Q150.43-18.74 150.4-11.37 150.36-4.01 150.22-3.69L150.22-3.69Q149.94-3.27 149.31-2.74L149.31-2.74Q149.06-2.57 149.33-2.04 149.59-1.51 150.89 0.6ZM153.56-23.2L153.56-23.2Q154.62-22.89 155.21-23.94 155.81-25 155.29-26.23L155.29-26.23Q154.13-28.51 150.54-29.71L150.54-29.71Q148.5-30.38 148.5-29.99L148.5-29.99Q148.5-29.81 149.03-29.21L149.03-29.21Q151.28-26.75 152.37-24.5L152.37-24.5Q152.75-23.66 152.89-23.52 153.04-23.38 153.56-23.2Z" transform="translate(-2.2849998474121094, 30.58020782470703)"></path></g> <!----> <!----> <!----> <!----> <!----> <!----> <!----></g></g> <g data-gra="path-slogan" fill-rule="" class="tp-slogan iconsvg-slogansvg" fill="#020101" transform="translate(-1.607391357421875,39.6391487121582)"><rect width="0"></rect> <rect x="182.00999450683594" width="0"></rect> <g transform="translate(0,0)"><g transform="scale(1)"><path d="M7.38-5.54L7.38-5.54L6.35-5.54Q5.97-7.12 4.16-7.17L4.16-7.17Q1.67-7.04 1.59-3.99L1.59-3.99Q1.59-0.73 4.21-0.73L4.21-0.73Q6.01-0.77 6.44-2.92L6.44-2.92L7.47-2.92Q7.00 0.04 3.99 0.13L3.99 0.13Q0.56 0 0.47-3.95L0.47-3.95Q0.64-7.90 4.16-8.07L4.16-8.07Q6.95-7.98 7.38-5.54ZM9.79-4.64L13.91-4.64L13.91-7.85L14.98-7.85L14.98 0L13.91 0L13.91-3.65L9.79-3.65L9.79 0L8.71 0L8.71-7.85L9.79-7.85L9.79-4.64ZM21.80 0L21.03-2.27L17.85-2.27L17.04 0L15.97 0L18.93-7.85L20.13-7.85L22.96 0L21.80 0ZM19.44-6.70L18.20-3.22L20.64-3.22L19.48-6.70L19.44-6.70ZM25.19-7.85L29.14-1.50L29.14-7.85L30.17-7.85L30.17 0L28.97 0L24.98-6.35L24.94-6.35L24.94 0L23.91 0L23.91-7.85L25.19-7.85ZM37.68-3.30L35.28-3.30L35.28-4.21L38.71-4.21L38.71 0L38.03 0L37.77-0.99Q36.87 0.09 35.19 0.13L35.19 0.13Q33.61 0.13 32.75-0.69L32.75-0.69Q31.46-1.89 31.50-3.99L31.50-3.99Q31.80-7.90 35.24-8.07L35.24-8.07Q38.15-7.90 38.58-5.49L38.58-5.49L37.55-5.49Q37.12-7.12 35.19-7.17L35.19-7.17Q32.75-7.00 32.62-3.95L32.62-3.95Q32.62-0.69 35.24-0.69L35.24-0.69Q36.18-0.69 36.87-1.20L36.87-1.20Q37.73-1.89 37.68-3.30L37.68-3.30ZM46.91-5.54L46.91-5.54L45.88-5.54Q45.49-7.12 43.69-7.17L43.69-7.17Q41.20-7.04 41.12-3.99L41.12-3.99Q41.12-0.73 43.73-0.73L43.73-0.73Q45.54-0.77 45.97-2.92L45.97-2.92L47.00-2.92Q46.52 0.04 43.52 0.13L43.52 0.13Q40.09 0 40-3.95L40-3.95Q40.17-7.90 43.69-8.07L43.69-8.07Q46.48-7.98 46.91-5.54ZM49.31-4.64L53.43-4.64L53.43-7.85L54.51-7.85L54.51 0L53.43 0L53.43-3.65L49.31-3.65L49.31 0L48.24 0L48.24-7.85L49.31-7.85L49.31-4.64ZM61.33-2.92L61.33-7.85L62.40-7.85L62.40-2.79Q62.27 0.04 59.18 0.13L59.18 0.13Q56.31 0.04 56.18-2.62L56.18-2.62L56.18-7.85L57.25-7.85L57.25-2.92Q57.30-0.77 59.23-0.73L59.23-0.73Q61.33-0.77 61.33-2.92L61.33-2.92ZM65.32-7.85L69.27-1.50L69.27-7.85L70.30-7.85L70.30 0L69.10 0L65.11-6.35L65.06-6.35L65.06 0L64.03 0L64.03-7.85L65.32-7.85ZM81.55-5.54L81.55-5.54L80.52-5.54Q80.13-7.12 78.33-7.17L78.33-7.17Q75.84-7.04 75.75-3.99L75.75-3.99Q75.75-0.73 78.37-0.73L78.37-0.73Q80.17-0.77 80.60-2.92L80.60-2.92L81.63-2.92Q81.16 0.04 78.15 0.13L78.15 0.13Q74.72 0 74.64-3.95L74.64-3.95Q74.81-7.90 78.33-8.07L78.33-8.07Q81.12-7.98 81.55-5.54ZM83.05-7.85L84.12-7.85L84.12 0L83.05 0L83.05-7.85ZM87.94-6.95L85.28-6.95L85.28-7.85L91.63-7.85L91.63-6.95L88.97-6.95L88.97 0L87.94 0L87.94-6.95ZM98.93-7.85L95.97-3.18L95.97 0L94.89 0L94.89-3.18L91.93-7.85L93.18-7.85L95.41-4.08L97.68-7.85L98.93-7.85ZM108.67-5.58L108.67-5.58L107.68-5.58Q107.60-7.08 105.71-7.17L105.71-7.17Q103.95-7.12 103.95-5.79L103.95-5.79Q103.95-4.94 104.89-4.81L104.89-4.81L107.12-4.29Q108.88-3.86 108.88-2.15L108.88-2.15Q108.84 0.04 105.79 0.13L105.79 0.13Q104.12 0.13 103.43-0.56L103.43-0.56Q102.58-1.20 102.62-2.53L102.62-2.53L103.65-2.53Q103.69-0.73 105.79-0.69L105.79-0.69Q107.85-0.73 107.90-2.02L107.90-2.02Q108.07-3.09 106.18-3.43L106.18-3.43L104.55-3.78Q102.88-4.25 102.88-5.67L102.88-5.67Q103.00-7.98 105.62-8.07L105.62-8.07Q108.58-8.07 108.67-5.58ZM112.23-6.95L109.57-6.95L109.57-7.85L115.92-7.85L115.92-6.95L113.26-6.95L113.26 0L112.23 0L112.23-6.95ZM117.04-7.85L118.11-7.85L118.11 0L117.04 0L117.04-7.85ZM119.91-7.85L120.99-7.85L120.99-0.94L124.98-0.94L124.98 0L119.91 0L119.91-7.85ZM126.01-7.85L127.08-7.85L127.08-0.94L131.07-0.94L131.07 0L126.01 0L126.01-7.85ZM140.34 0L139.57-2.27L136.39-2.27L135.58 0L134.51 0L137.47-7.85L138.67-7.85L141.50 0L140.34 0ZM137.98-6.70L136.74-3.22L139.18-3.22L138.03-6.70L137.98-6.70ZM142.45-7.85L143.52-7.85L143.52-0.94L147.51-0.94L147.51 0L142.45 0L142.45-7.85ZM148.54-7.85L149.61-7.85L149.61-0.94L153.61-0.94L153.61 0L148.54 0L148.54-7.85ZM160.86-3.91L160.86-3.91Q160.69-7.00 158.11-7.17L158.11-7.17Q155.49-7.04 155.36-3.91L155.36-3.91Q155.49-0.86 158.11-0.73L158.11-0.73Q160.69-0.90 160.86-3.91ZM161.93-3.91L161.93-3.91Q161.67 0 158.11 0.13L158.11 0.13Q154.51 0 154.25-3.91L154.25-3.91Q154.46-7.98 158.11-8.07L158.11-8.07Q161.67-7.94 161.93-3.91ZM167.55-6.52L167.51-6.52L165.71 0L164.59 0L162.53-7.85L163.65-7.85L165.15-1.46L165.19-1.46L166.95-7.85L168.11-7.85L169.87-1.46L169.91-1.46L171.37-7.85L172.53-7.85L170.47 0L169.36 0L167.55-6.52ZM179.27-5.58L179.27-5.58L178.28-5.58Q178.20-7.08 176.31-7.17L176.31-7.17Q174.55-7.12 174.55-5.79L174.55-5.79Q174.55-4.94 175.49-4.81L175.49-4.81L177.73-4.29Q179.48-3.86 179.48-2.15L179.48-2.15Q179.44 0.04 176.39 0.13L176.39 0.13Q174.72 0.13 174.03-0.56L174.03-0.56Q173.18-1.20 173.22-2.53L173.22-2.53L174.25-2.53Q174.29-0.73 176.39-0.69L176.39-0.69Q178.45-0.73 178.50-2.02L178.50-2.02Q178.67-3.09 176.78-3.43L176.78-3.43L175.15-3.78Q173.48-4.25 173.48-5.67L173.48-5.67Q173.61-7.98 176.22-8.07L176.22-8.07Q179.18-8.07 179.27-5.58Z" transform="translate(-0.4721030042918455, 8.068669527896995)"></path></g></g></g></g></g><defs v-gra="od"></defs></svg>